<svg width="37" height="37" viewBox="0 0 37 37" fill="none" xmlns="http://www.w3.org/2000/svg">
<g clip-path="url(#clip0_10_228)">
<path fill-rule="evenodd" clip-rule="evenodd" d="M10.4062 4.625C9.768 4.625 9.25 5.143 9.25 5.78125C9.25 6.42066 9.768 6.9375 10.4062 6.9375C11.0445 6.9375 11.5625 6.42066 11.5625 5.78125C11.5625 5.143 11.0445 4.625 10.4062 4.625ZM15.0312 4.625C14.393 4.625 13.875 5.143 13.875 5.78125C13.875 6.42066 14.393 6.9375 15.0312 6.9375C15.6695 6.9375 16.1875 6.42066 16.1875 5.78125C16.1875 5.143 15.6695 4.625 15.0312 4.625ZM34.6875 9.25H2.3125V4.625C2.3125 3.3485 3.3485 2.3125 4.625 2.3125H32.375C33.6515 2.3125 34.6875 3.3485 34.6875 4.625V9.25ZM34.6875 32.375C34.6875 33.6515 33.6515 34.6875 32.375 34.6875H4.625C3.3485 34.6875 2.3125 33.6515 2.3125 32.375V11.5625H34.6875V32.375ZM32.375 0H4.625C2.07084 0 0 2.07084 0 4.625V32.375C0 34.9292 2.07084 37 4.625 37H32.375C34.9292 37 37 34.9292 37 32.375V4.625C37 2.07084 34.9292 0 32.375 0ZM5.78125 4.625C5.143 4.625 4.625 5.143 4.625 5.78125C4.625 6.42066 5.143 6.9375 5.78125 6.9375C6.4195 6.9375 6.9375 6.42066 6.9375 5.78125C6.9375 5.143 6.4195 4.625 5.78125 4.625Z" fill="white"/>
</g>
<defs>
<clipPath id="clip0_10_228">
<rect width="37" height="37" fill="white"/>
</clipPath>
</defs>
</svg>
