<svg width="20" height="20" viewBox="0 0 20 20" fill="none" xmlns="http://www.w3.org/2000/svg">
<g clip-path="url(#clip0_15_204)">
<path d="M5.41667 6.66675C6.10703 6.66675 6.66667 6.10711 6.66667 5.41675C6.66667 4.72639 6.10703 4.16675 5.41667 4.16675C4.72631 4.16675 4.16667 4.72639 4.16667 5.41675C4.16667 6.10711 4.72631 6.66675 5.41667 6.66675Z" fill="white"/>
<path d="M4.16667 8.33333C4.16667 7.8731 4.53977 7.5 5 7.5H5.83333C6.29357 7.5 6.66667 7.87309 6.66667 8.33333V15C6.66667 15.4602 6.29357 15.8333 5.83333 15.8333H5C4.53977 15.8333 4.16667 15.4602 4.16667 15V8.33333Z" fill="white"/>
<path d="M9.16667 15.8333H10C10.4603 15.8333 10.8333 15.4602 10.8333 15V11.25C10.8333 10 13.3333 9.16667 13.3333 10.8333V15.0003C13.3333 15.4606 13.7064 15.8333 14.1667 15.8333H15C15.4603 15.8333 15.8333 15.4602 15.8333 15V10C15.8333 8.33333 14.5833 7.5 12.9167 7.5C11.25 7.5 10.8333 8.75 10.8333 8.75V8.33333C10.8333 7.87309 10.4603 7.5 10 7.5H9.16667C8.70642 7.5 8.33333 7.8731 8.33333 8.33333V15C8.33333 15.4602 8.70642 15.8333 9.16667 15.8333Z" fill="white"/>
<path fill-rule="evenodd" clip-rule="evenodd" d="M16.6667 0.833252C18.0474 0.833252 19.1667 1.95254 19.1667 3.33325V16.6666C19.1667 18.0473 18.0474 19.1666 16.6667 19.1666H3.33333C1.95263 19.1666 0.833334 18.0473 0.833334 16.6666V3.33325C0.833334 1.95254 1.95263 0.833252 3.33333 0.833252H16.6667ZM16.6667 2.49992C17.1269 2.49992 17.5 2.87302 17.5 3.33325V16.6666C17.5 17.1268 17.1269 17.4999 16.6667 17.4999H3.33333C2.8731 17.4999 2.5 17.1268 2.5 16.6666V3.33325C2.5 2.87302 2.8731 2.49992 3.33333 2.49992H16.6667Z" fill="white"/>
</g>
<defs>
<clipPath id="clip0_15_204">
<rect width="20" height="20" fill="white"/>
</clipPath>
</defs>
</svg>
