<svg width="39" height="39" viewBox="0 0 39 39" fill="none" xmlns="http://www.w3.org/2000/svg">
<path fill-rule="evenodd" clip-rule="evenodd" d="M7.3125 7.92188C7.3125 6.46733 7.89032 5.07236 8.91884 4.04384C9.94736 3.01532 11.3423 2.4375 12.7969 2.4375H26.2031C27.6577 2.4375 29.0526 3.01532 30.0812 4.04384C31.1097 5.07236 31.6875 6.46733 31.6875 7.92188V31.0781C31.6875 32.5327 31.1097 33.9276 30.0812 34.9562C29.0526 35.9847 27.6577 36.5625 26.2031 36.5625H12.7969C11.3423 36.5625 9.94736 35.9847 8.91884 34.9562C7.89032 33.9276 7.3125 32.5327 7.3125 31.0781V7.92188ZM12.7969 6.09375C12.312 6.09375 11.847 6.28636 11.5042 6.6292C11.1614 6.97203 10.9688 7.43703 10.9688 7.92188V31.0781C10.9688 32.0872 11.7877 32.9062 12.7969 32.9062H26.2031C26.688 32.9062 27.153 32.7136 27.4958 32.3708C27.8386 32.028 28.0312 31.563 28.0312 31.0781V7.92188C28.0312 7.43703 27.8386 6.97203 27.4958 6.6292C27.153 6.28636 26.688 6.09375 26.2031 6.09375H12.7969ZM14.0156 11.5781C14.0156 11.0933 14.2082 10.6283 14.5511 10.2854C14.8939 9.94261 15.3589 9.75 15.8438 9.75H23.1562C23.6411 9.75 24.1061 9.94261 24.4489 10.2854C24.7918 10.6283 24.9844 11.0933 24.9844 11.5781C24.9844 12.063 24.7918 12.528 24.4489 12.8708C24.1061 13.2136 23.6411 13.4062 23.1562 13.4062H15.8438C15.3589 13.4062 14.8939 13.2136 14.5511 12.8708C14.2082 12.528 14.0156 12.063 14.0156 11.5781ZM14.0156 17.6719C14.0156 17.187 14.2082 16.722 14.5511 16.3792C14.8939 16.0364 15.3589 15.8438 15.8438 15.8438H23.1562C23.6411 15.8438 24.1061 16.0364 24.4489 16.3792C24.7918 16.722 24.9844 17.187 24.9844 17.6719C24.9844 18.1567 24.7918 18.6217 24.4489 18.9646C24.1061 19.3074 23.6411 19.5 23.1562 19.5H15.8438C15.3589 19.5 14.8939 19.3074 14.5511 18.9646C14.2082 18.6217 14.0156 18.1567 14.0156 17.6719ZM14.0156 23.7656C14.0156 23.2808 14.2082 22.8158 14.5511 22.4729C14.8939 22.1301 15.3589 21.9375 15.8438 21.9375H23.1562C23.6411 21.9375 24.1061 22.1301 24.4489 22.4729C24.7918 22.8158 24.9844 23.2808 24.9844 23.7656C24.9844 24.2505 24.7918 24.7155 24.4489 25.0583C24.1061 25.4011 23.6411 25.5938 23.1562 25.5938H15.8438C15.3589 25.5938 14.8939 25.4011 14.5511 25.0583C14.2082 24.7155 14.0156 24.2505 14.0156 23.7656Z" fill="white"/>
</svg>
