<svg width="38" height="38" viewBox="0 0 38 38" fill="none" xmlns="http://www.w3.org/2000/svg">
<path d="M26.125 1.48438H11.875C10.0724 1.48675 8.61175 2.94737 8.60938 4.75V33.25C8.61175 35.0526 10.0724 36.5132 11.875 36.5156H26.125C27.9276 36.5132 29.3883 35.0526 29.3906 33.25V4.75C29.3883 2.94737 27.9276 1.48675 26.125 1.48438ZM27.6094 33.25C27.6082 34.0694 26.9444 34.7332 26.125 34.7344H11.875C11.0556 34.7332 10.3918 34.0694 10.3906 33.25V4.75C10.3918 3.93062 11.0556 3.26681 11.875 3.26562H26.125C26.9444 3.26681 27.6082 3.93062 27.6094 4.75V33.25ZM21.375 30.5781H16.625C16.1334 30.5781 15.7344 30.9771 15.7344 31.4688C15.7344 31.9604 16.1334 32.3594 16.625 32.3594H21.375C21.8666 32.3594 22.2656 31.9604 22.2656 31.4688C22.2656 30.9771 21.8666 30.5781 21.375 30.5781Z" fill="white"/>
</svg>
